<?xml version="1.0" ?><svg enable-background="new 0 0 500 500" id="Layer_1" version="1.1" viewBox="0 0 500 500" xml:space="preserve" xmlns="http://www.w3.org/2000/svg" xmlns:xlink="http://www.w3.org/1999/xlink"><g><g><path d="M418.025,360.424H56.17c-8.752,0-15.847-7.095-15.847-15.847V104.012c0-8.752,7.095-15.847,15.847-15.847    h361.855c8.752,0,15.847,7.095,15.847,15.847v240.565C433.872,353.329,426.777,360.424,418.025,360.424z" fill="#FECC5D"/></g><polygon fill="#E9B142" points="231.13,360.734 237,247.166 237,153 252,153 252,134 296,134 296,360.766  "/><path d="M40.494,112.446l19.228,48.87c6.964,17.699,22.071,30.927,40.534,35.494l136.885,33.853l136.072-34.057   c17.901-4.48,32.653-17.116,39.829-34.116l21.171-50.151v45.371l-11.39,23.606c-8.018,16.618-23.384,28.499-41.485,32.078   l-128.991,25.503c-9.9,1.957-20.087,1.962-29.989,0.013L93.039,213.459c-18.36-3.613-33.897-15.763-41.83-32.71l-10.885-23.252   L40.494,112.446z" fill="#E9B142"/><circle cx="237.098" cy="231.918" fill="#E9B142" r="15.248"/><circle cx="237.098" cy="224.295" fill="#FFFFFF" r="15.248"/><path d="M252.248,224.295c0-8.421-6.248-15.248-15.248-15.248v30.496C246,239.543,252.248,232.716,252.248,224.295z   " fill="#E2DEDE"/><g><rect fill="#E2DEDE" height="268.787" width="198.496" x="261.48" y="129.381"/><g><rect fill="#F3F3F3" height="268.787" width="198.496" x="243.212" y="143.703"/><path d="M377.733,185.41h-67.848c-2.13,0-3.857-1.727-3.857-3.857l0,0c0-2.13,1.727-3.857,3.857-3.857h67.848     c2.13,0,3.857,1.727,3.857,3.857l0,0C381.589,183.683,379.863,185.41,377.733,185.41z" fill="#E2DEDE"/><path d="M416.418,217.557H269.604c-2.13,0-3.857-1.727-3.857-3.857v0c0-2.13,1.727-3.857,3.857-3.857h146.814     c2.13,0,3.857,1.727,3.857,3.857v0C420.274,215.83,418.547,217.557,416.418,217.557z" fill="#E2DEDE"/><path d="M416.418,242.79H269.604c-2.13,0-3.857-1.727-3.857-3.857l0,0c0-2.13,1.727-3.857,3.857-3.857h146.814     c2.13,0,3.857,1.727,3.857,3.857l0,0C420.274,241.063,418.547,242.79,416.418,242.79z" fill="#E2DEDE"/><path d="M416.418,268.023H269.604c-2.13,0-3.857-1.727-3.857-3.857v0c0-2.13,1.727-3.857,3.857-3.857h146.814     c2.13,0,3.857,1.727,3.857,3.857v0C420.274,266.296,418.547,268.023,416.418,268.023z" fill="#E2DEDE"/><path d="M416.418,293.255H269.604c-2.13,0-3.857-1.727-3.857-3.857l0,0c0-2.13,1.727-3.857,3.857-3.857h146.814     c2.13,0,3.857,1.727,3.857,3.857l0,0C420.274,291.529,418.547,293.255,416.418,293.255z" fill="#E2DEDE"/><path d="M416.418,318.488H269.604c-2.13,0-3.857-1.727-3.857-3.857l0,0c0-2.13,1.727-3.857,3.857-3.857h146.814     c2.13,0,3.857,1.727,3.857,3.857l0,0C420.274,316.761,418.547,318.488,416.418,318.488z" fill="#E2DEDE"/><path d="M339.154,343.721h-69.55c-2.13,0-3.857-1.727-3.857-3.857v0c0-2.13,1.727-3.857,3.857-3.857h69.55     c2.13,0,3.857,1.727,3.857,3.857v0C343.011,341.994,341.284,343.721,339.154,343.721z" fill="#E2DEDE"/><path d="M413.267,374.127h-33.161c-2.13,0-3.857-1.727-3.857-3.857v0c0-2.13,1.727-3.857,3.857-3.857h33.161     c2.13,0,3.857,1.727,3.857,3.857v0C417.124,372.4,415.397,374.127,413.267,374.127z" fill="#E2DEDE"/></g></g></g></svg>